<svg xmlns="http://www.w3.org/2000/svg" viewBox="0 0 24 24" fill="currentColor" width="24" height="24">
  <path fill="#FFFFFF" d="M22.46 5.434c-.81.36-1.68.602-2.6.71a4.526 4.526 0 0 0 1.984-2.496 9.037 9.037 0 0 1-2.866 1.095 4.513 4.513 0 0 0-7.69 4.12 12.81 12.81 0 0 1-9.3-4.715 4.49 4.49 0 0 0 1.394 5.997 4.443 4.443 0 0 1-2.044-.564v.057a4.515 4.515 0 0 0 3.62 4.425 4.52 4.52 0 0 1-2.04.077 4.517 4.517 0 0 0 4.217 3.134 9.055 9.055 0 0 1-5.604 1.93A9.18 9.18 0 0 1 2 18.85a12.773 12.773 0 0 0 6.918 2.027c8.3 0 12.84-6.876 12.84-12.84 0-.195-.005-.39-.014-.583a9.172 9.172 0 0 0 2.252-2.336z"/>
</svg>
